<svg xmlns="http://www.w3.org/2000/svg" viewBox="0 0 512 512"><defs><linearGradient id="g" x1="0" y1="0" x2="1" y2="1"><stop stop-color="#8b7cf6"/><stop offset="1" stop-color="#5bc0eb"/></linearGradient></defs><rect width="512" height="512" rx="120" fill="#0b1020"/><rect x="54" y="54" width="404" height="404" rx="94" fill="url(#g)"/><path d="M145 159h92c79 0 130 38 130 97 0 60-51 97-130 97h-92V159zm76 59v76h22c35 0 55-13 55-38 0-24-20-38-55-38h-22z" fill="#fff"/><path d="M145 371h222v-55H221v-30h121v-52H221v-28h142v-55H145v220z" fill="#fff" opacity=".96"/></svg>